<?xml version="1.0" encoding="UTF-8"?>
<!DOCTYPE svg PUBLIC "-//W3C//DTD SVG 1.1//EN" "http://www.w3.org/Graphics/SVG/1.1/DTD/svg11.dtd">
<!-- Creator: CorelDRAW X7 -->
<svg xmlns="http://www.w3.org/2000/svg" xml:space="preserve" width="24.1301mm" height="10.3089mm" version="1.1" style="shape-rendering:geometricPrecision; text-rendering:geometricPrecision; image-rendering:optimizeQuality; fill-rule:evenodd; clip-rule:evenodd"
viewBox="0 0 845 361"
 xmlns:xlink="http://www.w3.org/1999/xlink">
 <defs>
  <style type="text/css">
   <![CDATA[
    .fil1 {fill:none}
    .fil0 {fill:#3F53B2;fill-rule:nonzero}
   ]]>
  </style>
   <clipPath id="id0">
    <path d="M0 0l845 0 0 361 -845 0 0 -361z"/>
   </clipPath>
 </defs>
 <g id="Layer_x0020_1">
  <metadata id="CorelCorpID_0Corel-Layer"/>
  <g>
  </g>
  <g style="clip-path:url(#id0)">
   <g>
    <path class="fil0" d="M215 226c-3,1 -6,1 -10,2 -4,0 -8,0 -12,0 -9,0 -15,-1 -19,-4 -4,-3 -7,-9 -7,-16l0 -158c3,-1 6,-2 10,-2 4,0 8,-1 12,-1 9,0 15,2 19,5 5,3 7,8 7,16l0 158 0 0zm-138 -143c-4,0 -7,1 -10,2 -3,1 -5,2 -8,4 -3,-3 -6,-6 -8,-9 -1,-4 -2,-7 -2,-11 0,-7 3,-13 9,-18 7,-4 15,-6 26,-6 21,0 38,6 50,19 12,12 18,30 18,54 0,12 -2,23 -6,32 -3,9 -8,17 -14,23 -7,6 -14,10 -22,13 -9,3 -18,4 -27,4 -6,0 -11,0 -16,-1 -5,-1 -9,-3 -13,-5 -3,-2 -6,-5 -8,-8 -2,-4 -3,-7 -3,-12 0,-4 1,-8 3,-12 2,-3 5,-6 9,-8 2,2 6,4 9,5 4,1 9,2 14,2 7,0 13,-3 18,-8 4,-5 7,-14 7,-25 0,-23 -9,-35 -26,-35l0 0zm112 131c9,0 17,2 24,4 7,3 13,6 18,11 5,4 9,10 12,16 3,6 4,13 4,21 0,16 -5,29 -16,38 -11,9 -26,14 -46,14 -9,0 -17,-2 -26,-4 -9,-2 -16,-4 -23,-8 -7,-4 -13,-8 -17,-13 -4,-5 -6,-11 -6,-17 0,-5 2,-10 5,-14 4,-4 8,-6 13,-7 3,3 7,6 11,9 3,3 7,6 12,9 4,2 9,4 13,6 5,1 11,2 16,2 6,0 11,-1 14,-4 3,-3 5,-7 5,-12 0,-4 -1,-8 -4,-10 -3,-3 -6,-4 -10,-4 -6,0 -12,3 -16,9 -7,0 -12,-2 -17,-6 -4,-3 -6,-8 -6,-13 0,-9 3,-15 10,-20 8,-4 18,-7 30,-7l0 0zm96 -107c3,0 6,-1 9,-2 3,-1 4,-2 6,-3 2,2 4,4 6,7 2,3 3,7 3,12 0,6 -3,11 -8,15 -5,5 -13,7 -24,7 -6,0 -12,-1 -18,-2 -6,-2 -12,-5 -16,-9 -5,-4 -9,-8 -12,-14 -3,-6 -4,-13 -4,-21 0,-17 5,-29 15,-39 11,-9 24,-13 41,-13 12,0 23,3 32,8 10,6 19,15 29,25l16 18 43 -53c9,2 17,5 23,9 6,4 9,9 9,16 0,4 -1,8 -3,12 -2,3 -4,6 -7,9l-33 34c4,5 7,9 11,13 3,5 6,9 9,14 3,4 5,9 7,14 1,5 2,10 2,15 0,8 -1,15 -4,21 -3,6 -7,11 -12,16 -5,4 -12,8 -19,10 -8,3 -17,4 -27,4 -9,0 -18,-1 -25,-4 -7,-2 -14,-6 -19,-10 -5,-5 -9,-10 -12,-16 -3,-6 -4,-12 -4,-19 0,-6 1,-11 2,-16 2,-5 4,-9 7,-13 2,-5 5,-9 8,-12 3,-4 6,-7 9,-10l6 -8 -29 -31c-4,-3 -7,-5 -9,-7 -3,-1 -6,-2 -8,-2 -4,0 -7,1 -10,3 -2,2 -3,6 -3,10 0,2 1,5 3,8 2,2 5,4 10,4l0 0zm89 70c0,-4 -1,-8 -3,-13 -2,-5 -6,-10 -11,-15 -3,3 -6,8 -9,13 -3,5 -5,10 -5,15 0,5 1,8 4,11 2,3 5,4 10,4 9,0 14,-5 14,-15l0 0zm150 53c-7,0 -14,-1 -20,-5 -7,-3 -12,-7 -18,-13 -5,-6 -9,-12 -13,-20 -4,-8 -8,-16 -10,-26l-5 0c-5,0 -9,-1 -14,-4 -4,-3 -6,-8 -6,-15 0,-4 1,-8 2,-11 1,-3 2,-5 3,-7l35 0c9,0 16,-2 22,-7 5,-4 8,-10 8,-17 0,-6 -2,-11 -7,-16 -4,-4 -10,-6 -19,-6 -5,0 -9,1 -14,3 -4,1 -7,3 -9,4 -3,-2 -6,-5 -9,-9 -2,-3 -3,-7 -3,-11 0,-5 1,-9 3,-12 2,-3 6,-6 9,-8 4,-2 9,-3 14,-4 5,-1 10,-1 15,-1 10,0 19,1 28,4 8,3 16,7 21,12 6,6 11,12 14,20 4,7 5,16 5,26 0,8 -1,16 -4,22 -2,7 -6,13 -11,18 -5,5 -11,9 -18,11 -6,3 -14,5 -22,6 5,7 12,13 20,18 8,6 17,10 28,12 1,1 1,3 1,6 1,2 1,4 1,6 0,6 -2,12 -6,17 -5,5 -11,7 -21,7l0 0zm108 -4c-2,1 -6,1 -10,2 -4,0 -8,0 -12,0 -8,0 -15,-1 -19,-4 -4,-3 -6,-9 -6,-16l0 -158c2,-1 5,-2 9,-2 5,0 9,-1 13,-1 8,0 14,2 19,5 4,3 6,8 6,16l0 158 0 0zm170 0c-2,1 -6,1 -10,2 -4,0 -8,0 -12,0 -8,0 -15,-1 -19,-4 -4,-3 -7,-9 -7,-16l0 -83 -21 0c-11,0 -19,3 -25,8 -7,6 -10,14 -10,25 0,5 1,10 3,14 2,5 4,9 6,13 3,4 6,8 9,11 4,4 7,7 11,9 0,8 -3,14 -7,18 -5,5 -10,7 -17,7 -11,0 -22,-5 -32,-16 -6,-7 -11,-15 -15,-24 -5,-10 -7,-21 -7,-34 0,-12 2,-21 6,-30 4,-8 9,-16 16,-22 7,-5 16,-10 25,-13 10,-3 21,-4 34,-4l24 0 0 -37c3,-1 6,-2 10,-2 4,0 8,-1 13,-1 8,0 14,2 18,5 5,3 7,8 7,16l0 158 0 0z"/>
   </g>
  </g>
  <polygon class="fil1" points="0,0 845,0 845,361 0,361 "/>
 </g>
</svg>
